<?xml version="1.0" encoding="iso-8859-1"?>
<svg xmlns="http://www.w3.org/2000/svg" xmlns:xlink="http://www.w3.org/1999/xlink" version="1.1" id="Layer_1" x="0px" y="0px" viewBox="-5 -5 522 522" style="enable-background:new -5 -5 522 522; background-color: #FAFAFA; stroke:#000000;  stroke-width: 10px; stroke-linejoin: round;" xml:space="preserve" width="512" height="512">
<path fill="#FEFEFE" d="M512,195.75c0-24.619-11.884-46.513-30.216-60.25C500.116,121.763,512,99.869,512,75.25C512,33.757,478.243,0,436.75,0  H75.25C33.757,0,0,33.757,0,75.25c0,24.619,11.884,46.513,30.216,60.25C11.884,149.237,0,171.131,0,195.75  S11.884,242.263,30.216,256C11.884,269.737,0,291.631,0,316.25s11.884,46.513,30.216,60.25C11.884,390.237,0,412.131,0,436.75  C0,478.243,33.757,512,75.25,512h361.5c41.493,0,75.25-33.757,75.25-75.25c0-24.619-11.884-46.513-30.216-60.25  C500.116,362.763,512,340.869,512,316.25s-11.884-46.513-30.216-60.25C500.116,242.263,512,220.369,512,195.75z M479.434,60.25  h-42.852v30h42.852c-6.203,17.599-22.989,30.25-42.684,30.25H135.33c6.637-8.79,11.394-19.072,13.664-30.25h257.587v-30H148.995  c-2.27-11.178-7.028-21.46-13.664-30.25h301.42C456.444,30,473.231,42.651,479.434,60.25z M30,75.25C30,50.299,50.299,30,75.25,30  s45.25,20.299,45.25,45.25s-20.299,45.25-45.25,45.25S30,100.201,30,75.25z M30,195.75c0-24.951,20.299-45.25,45.25-45.25  s45.25,20.299,45.25,45.25S100.201,241,75.25,241S30,220.701,30,195.75z M30,316.25C30,291.299,50.299,271,75.25,271  s45.25,20.299,45.25,45.25s-20.299,45.25-45.25,45.25S30,341.201,30,316.25z M30,436.75c0-24.951,20.299-45.25,45.25-45.25  s45.25,20.299,45.25,45.25S100.201,482,75.25,482S30,461.701,30,436.75z M479.434,421.75h-52.355v30h52.355  C473.231,469.349,456.444,482,436.75,482H135.33c6.637-8.79,11.394-19.072,13.664-30.25h248.084v-30H148.995  c-2.27-11.178-7.028-21.46-13.664-30.25h301.42C456.444,391.5,473.231,404.151,479.434,421.75z M135.33,361.5  c6.637-8.79,11.394-19.072,13.664-30.25h330.439c-6.203,17.599-22.989,30.25-42.684,30.25H135.33z M479.434,301.25H148.995  c-2.27-11.178-7.028-21.46-13.664-30.25h301.42C456.444,271,473.231,283.651,479.434,301.25z M135.33,241  c6.637-8.79,11.394-19.072,13.664-30.25H195.5v-30h-46.505c-2.27-11.178-7.028-21.46-13.664-30.25h301.42  c19.694,0,36.481,12.651,42.684,30.25H225.5v30h253.934C473.231,228.349,456.444,241,436.75,241H135.33z"/>
</svg>
